<?xml version="1.0" encoding="UTF-8" standalone="no"?>
<!-- Created with Inkscape (http://www.inkscape.org/) -->

<svg
   xmlns:dc="http://purl.org/dc/elements/1.1/"
   xmlns:cc="http://creativecommons.org/ns#"
   xmlns:rdf="http://www.w3.org/1999/02/22-rdf-syntax-ns#"
   xmlns:svg="http://www.w3.org/2000/svg"
   xmlns="http://www.w3.org/2000/svg"
   xmlns:sodipodi="http://sodipodi.sourceforge.net/DTD/sodipodi-0.dtd"
   xmlns:inkscape="http://www.inkscape.org/namespaces/inkscape"
   width="122.16989mm"
   height="167.94873mm"
   viewBox="0 0 122.16989 167.94873"
   version="1.1"
   id="svg8"
   inkscape:version="0.92.2 (5c3e80d, 2017-08-06)"
   sodipodi:docname="hotairBalloon.svg">
  <defs
     id="defs2" />
  <sodipodi:namedview
     id="base"
     pagecolor="#ffffff"
     bordercolor="#666666"
     borderopacity="1.0"
     inkscape:pageopacity="0.0"
     inkscape:pageshadow="2"
     inkscape:zoom="1"
     inkscape:cx="266.93906"
     inkscape:cy="242.73241"
     inkscape:document-units="mm"
     inkscape:current-layer="layer1"
     showgrid="false"
     showborder="false"
     showguides="true"
     inkscape:guide-bbox="true"
     inkscape:object-paths="true"
     inkscape:snap-nodes="true"
     inkscape:window-width="1920"
     inkscape:window-height="1001"
     inkscape:window-x="-9"
     inkscape:window-y="-9"
     inkscape:window-maximized="1"
     fit-margin-top="0"
     fit-margin-left="0"
     fit-margin-right="0"
     fit-margin-bottom="0" />
  <metadata
     id="metadata5">
    <rdf:RDF>
      <cc:Work
         rdf:about="">
        <dc:format>image/svg+xml</dc:format>
        <dc:type
           rdf:resource="http://purl.org/dc/dcmitype/StillImage" />
        <dc:title></dc:title>
      </cc:Work>
    </rdf:RDF>
  </metadata>
  <g
     inkscape:label="Layer 1"
     inkscape:groupmode="layer"
     id="layer1"
     transform="translate(-235.48969,85.68429)">
    <g
       id="g1047"
       transform="matrix(-1,0,0,1,593.14928,0)">
      <path
         inkscape:connector-curvature="0"
         id="rect867"
         d="m 281.88509,52.470778 c 10.1633,0.06866 20.34038,-0.138493 30.4949,0.105678 5.51438,1.284248 3.94694,7.588429 4.16999,11.757516 -0.19957,4.818884 0.44943,9.746164 -0.40296,14.483434 -2.39917,4.840564 -8.39229,2.712641 -12.69858,3.184168 -7.53364,-0.06736 -15.08084,0.136733 -22.60573,-0.105678 -5.51438,-1.284247 -3.94694,-7.588428 -4.16999,-11.757515 0.19957,-4.818884 -0.44943,-9.746164 0.40296,-14.483434 0.77673,-1.902266 2.75376,-3.212821 4.80941,-3.184169 z"
         style="opacity:1;fill:#784421;stroke:#000000;stroke-width:0.37900466;stroke-opacity:1" />
      <path
         inkscape:connector-curvature="0"
         id="path967"
         d="m 293.41242,28.778147 c -4.5937,-17.547083 -13.22027,-34.4811795 -12.22239,-53.085513 0.58352,-21.136328 7.68191,-41.421354 15.40457,-60.878444 8.44534,27.338451 16.7189,56.467735 10.70106,85.20279161 -2.01644,9.71205409 -5.414,19.07052739 -7.51888,28.76116539"
         style="fill:#ffffff;stroke:#000000;stroke-width:0.31488717px;stroke-linecap:butt;stroke-linejoin:miter;stroke-opacity:1" />
      <path
         inkscape:connector-curvature="0"
         id="path965"
         d="m 287.49445,28.77812 c -9.13923,-18.504175 -25.04585,-34.1546371 -28.24099,-55.230829 -2.56891,-17.155774 7.81245,-33.000928 19.72818,-44.298026 5.47678,-5.331872 11.43756,-10.14398 17.61296,-14.63949 16.10604,11.459872 32.20916,26.505373 35.71928,46.860444 3.17878,19.249644 -7.033,37.3045386 -17.71735,52.463163 -3.47715,4.988555 -7.12342,9.856588 -10.60108,14.844738"
         style="fill:#ffffff;stroke:#000000;stroke-width:0.31488717px;stroke-linecap:butt;stroke-linejoin:miter;stroke-opacity:1" />
      <path
         inkscape:connector-curvature="0"
         id="path961"
         d="m 296.61116,-85.48963 c -26.98393,-0.933946 -62.94547,15.754601 -60.87891,47.076873 0.71722,15.796237 10.73152,29.1803993 19.89997,41.3224418 7.19444,9.0776002 15.08341,17.5806802 23.24963,25.7864532 11.81981,0 23.63962,0 35.45943,0 15.8125,-16.35162 32.86971,-33.1055373 40.73222,-54.969121 4.68309,-13.719793 2.92093,-30.129122 -8.1654,-40.475561 -13.02738,-13.168038 -32.16161,-18.663964 -50.29694,-18.741086 z"
         style="fill:#ffffff;stroke:#000000;stroke-width:0.31488717px;stroke-linecap:butt;stroke-linejoin:miter;stroke-opacity:1" />
      <path
         inkscape:connector-curvature="0"
         id="path944"
         d="m 293.41242,28.778147 c -4.5937,-17.547083 -13.22027,-34.4811795 -12.22239,-53.085513 0.58352,-21.136328 7.68191,-41.421354 15.40457,-60.878444 8.44534,27.338451 16.7189,56.467735 10.70106,85.20279161 -2.01644,9.71205409 -5.414,19.07052739 -7.51888,28.76116539 m -12.28233,-2.7e-5 c -9.13923,-18.504175 -25.04585,-34.1546371 -28.24099,-55.230829 -2.56891,-17.155774 7.81245,-33.000928 19.72818,-44.298026 5.47678,-5.331872 11.43756,-10.14398 17.61296,-14.63949 16.10604,11.459872 32.20916,26.505373 35.71928,46.860444 3.17878,19.249644 -7.033,37.3045386 -17.71735,52.463163 -3.47715,4.988555 -7.12342,9.856588 -10.60108,14.844738 m -7.38429,-114.26775 c -26.98393,-0.933946 -62.94547,15.754601 -60.87891,47.076873 0.71722,15.796237 10.73152,29.1803993 19.89997,41.3224418 7.19444,9.0776002 15.08341,17.5806802 23.24963,25.7864532 11.81981,0 23.63962,0 35.45943,0 15.8125,-16.35162 32.86971,-33.1055373 40.73222,-54.969121 4.68309,-13.719793 2.92093,-30.129122 -8.1654,-40.475561 -13.02738,-13.168038 -32.16161,-18.663964 -50.29694,-18.741086 z"
         style="fill:#ff0000;stroke:#000000;stroke-width:0.31488717px;stroke-linecap:butt;stroke-linejoin:miter;stroke-opacity:1" />
      <path
         inkscape:connector-curvature="0"
         id="path887"
         d="m 278.88179,28.696355 c 0.87337,7.92938 1.74673,15.858761 2.6201,23.788141"
         style="fill:none;stroke:#000000;stroke-width:0.26458332px;stroke-linecap:butt;stroke-linejoin:miter;stroke-opacity:1" />
      <path
         inkscape:connector-curvature="0"
         id="path889"
         d="m 314.34132,28.696355 c -1.10277,7.924806 -2.20555,15.849613 -3.30832,23.774419"
         style="fill:none;stroke:#000000;stroke-width:0.26458332px;stroke-linecap:butt;stroke-linejoin:miter;stroke-opacity:1" />
      <path
         inkscape:connector-curvature="0"
         id="path891"
         d="m 287.49442,28.778147 c 0.98047,7.897542 1.96094,15.795085 2.94141,23.692627"
         style="fill:none;stroke:#000000;stroke-width:0.26458332px;stroke-linecap:butt;stroke-linejoin:miter;stroke-opacity:1" />
      <path
         inkscape:connector-curvature="0"
         id="path893"
         d="m 303.99548,28.778147 c -0.5396,7.897542 -1.07919,15.795085 -1.61879,23.692627"
         style="fill:none;stroke:#000000;stroke-width:0.26458332px;stroke-linecap:butt;stroke-linejoin:miter;stroke-opacity:1" />
      <path
         transform="scale(0.26458333)"
         id="path982"
         d="m 1111.3945,-323.24609 c -100.6857,0.60245 -228.00401,63.38054 -220.43747,178.06445 2.71075,59.702312 40.56048,110.288503 75.21289,156.179687 27.19159,34.30904 57.00668,66.445039 87.87108,97.458983 h 32.3945 C 1051.8691,38.656066 991.91362,-20.439021 979.85547,-99.978516 970.1462,-164.81924 1009.3821,-224.7066 1054.418,-267.4043 c 20.6996,-20.15195 43.2302,-38.33917 66.5703,-55.33008 0.021,0.0148 0.042,0.0301 0.062,0.0449 v -0.42188 c -3.1871,-0.11031 -6.4083,-0.1542 -9.6563,-0.13476 z m -24.959,431.70312 c 0.052,0.10404 0.1068,0.20646 0.1583,0.31055 h 22.3671 12.0899 v -430.52735 c -0.021,-0.0675 -0.042,-0.13566 -0.062,-0.20312 -29.188,73.53861 -56.0172,150.20646 -58.2227,230.091796 -3.7656,70.205689 28.729,134.119309 46.1114,200.328124 z"
         style="opacity:1;fill:#d90000;fill-opacity:1;stroke:none;stroke-width:1.19055116;stroke-linecap:butt;stroke-linejoin:round;stroke-miterlimit:4;stroke-dasharray:none;stroke-opacity:1;paint-order:normal"
         inkscape:connector-curvature="0" />
      <path
         transform="scale(0.26458333)"
         sodipodi:nodetypes="cccccccccccccccccccc"
         inkscape:connector-curvature="0"
         style="opacity:1;fill:none;fill-opacity:1;stroke:#000000;stroke-width:1.19055116;stroke-linecap:butt;stroke-linejoin:round;stroke-miterlimit:4;stroke-dasharray:none;stroke-opacity:1;paint-order:normal"
         d="m 1111.3945,-323.24609 c -100.6857,0.60245 -228.00401,63.38054 -220.43747,178.06445 2.71075,59.702312 40.56048,110.288503 75.21289,156.179687 27.19159,34.30904 57.00668,66.445039 87.87108,97.458983 h 32.3945 C 1051.8691,38.656066 991.91362,-20.439021 979.85547,-99.978516 970.1462,-164.81924 1009.3821,-224.7066 1054.418,-267.4043 c 20.6996,-20.15195 43.2302,-38.33917 66.5703,-55.33008 0.021,0.0148 0.042,0.0301 0.062,0.0449 v -0.42188 c -3.1871,-0.11031 -6.4083,-0.1542 -9.6563,-0.13476 z m 9.6563,1.48632 c -0.021,-0.0675 -0.042,-0.13566 -0.062,-0.20312 -29.188,73.53861 -56.0172,150.20646 -58.2227,230.091796 -3.7656,70.205689 28.729,134.119309 46.1114,200.328124 h -22.442 c 0.052,0.10404 0.1068,0.20646 0.1583,0.31055 h 22.3671 12.0899"
         id="path1032" />
      <path
         transform="scale(0.26458333)"
         id="path996"
         d="m 1121.4688,198.27148 c -18.6939,0.0508 -37.3912,0.1692 -56.0762,0.043 -7.7694,-0.10829 -15.2421,4.84549 -18.1778,12.03516 -3.2216,17.90464 -0.7691,36.52713 -1.5234,54.74023 0.843,15.75718 -5.08,39.58366 15.7617,44.4375 19.9794,0.64363 40.0001,0.45823 60.0157,0.37696 z"
         style="opacity:1;fill:#643a1e;fill-opacity:1;stroke:none;stroke-width:1.43245852;stroke-opacity:1"
         inkscape:connector-curvature="0" />
      <path
         sodipodi:nodetypes="cccccc"
         inkscape:connector-curvature="0"
         transform="scale(0.26458333)"
         style="opacity:1;fill:none;fill-opacity:1;stroke:#000000;stroke-width:1.43245852;stroke-opacity:1"
         d="m 1121.4688,198.27148 c -18.6939,0.0508 -37.3912,0.1692 -56.0762,0.043 -7.7694,-0.10829 -15.2421,4.84549 -18.1778,12.03516 -3.2216,17.90464 -0.7691,36.52713 -1.5234,54.74023 0.843,15.75718 -5.08,39.58366 15.7617,44.4375 19.9794,0.64363 40.0001,0.45823 60.0157,0.37696"
         id="path1030" />
    </g>
  </g>
</svg>
