<?xml version="1.0" encoding="UTF-8" standalone="no"?>
<!-- Created with Inkscape (http://www.inkscape.org/) -->

<svg
   xmlns:dc="http://purl.org/dc/elements/1.1/"
   xmlns:cc="http://creativecommons.org/ns#"
   xmlns:rdf="http://www.w3.org/1999/02/22-rdf-syntax-ns#"
   xmlns:svg="http://www.w3.org/2000/svg"
   xmlns="http://www.w3.org/2000/svg"
   xmlns:sodipodi="http://sodipodi.sourceforge.net/DTD/sodipodi-0.dtd"
   xmlns:inkscape="http://www.inkscape.org/namespaces/inkscape"
   width="153.9875mm"
   height="153.9875mm"
   viewBox="0 0 153.9875 153.9875"
   version="1.1"
   id="svg8"
   inkscape:version="0.92.2 (5c3e80d, 2017-08-06)"
   sodipodi:docname="mail.svg">
  <defs
     id="defs2" />
  <sodipodi:namedview
     id="base"
     pagecolor="#ffffff"
     bordercolor="#666666"
     borderopacity="1.0"
     inkscape:pageopacity="0.0"
     inkscape:pageshadow="2"
     inkscape:zoom="1"
     inkscape:cx="255.3232"
     inkscape:cy="262.44672"
     inkscape:document-units="mm"
     inkscape:current-layer="layer1"
     showgrid="false"
     showborder="false"
     showguides="true"
     inkscape:guide-bbox="true"
     fit-margin-top="0"
     fit-margin-left="0"
     fit-margin-right="0"
     fit-margin-bottom="0"
     inkscape:window-width="1920"
     inkscape:window-height="1001"
     inkscape:window-x="-9"
     inkscape:window-y="-9"
     inkscape:window-maximized="1" />
  <metadata
     id="metadata5">
    <rdf:RDF>
      <cc:Work
         rdf:about="">
        <dc:format>image/svg+xml</dc:format>
        <dc:type
           rdf:resource="http://purl.org/dc/dcmitype/StillImage" />
        <dc:title></dc:title>
      </cc:Work>
    </rdf:RDF>
  </metadata>
  <g
     inkscape:label="Layer 1"
     inkscape:groupmode="layer"
     id="layer1"
     transform="translate(134.1364,-67.402597)">
    <path
       style="opacity:1;fill:#000000;stroke-width:0.31554815"
       d="M -57.14265,67.402597 A 76.993752,76.993752 0 0 0 -134.1364,144.39635 76.993752,76.993752 0 0 0 -57.14265,221.3901 76.993752,76.993752 0 0 0 19.851099,144.39635 76.993752,76.993752 0 0 0 -57.14265,67.402597 Z M -109.39786,111.8526 H -4.88744 c 3.38845,0 6.36817,1.68258 8.1566,4.2602 l -60.41181,33.57625 -60.41181,-33.57625 c 1.78843,-2.57762 4.76815,-4.2602 8.1566,-4.2602 z m -9.82834,8.57002 62.08355,34.50487 62.08407,-34.50487 c 0.0597,0.44205 0.093,0.89291 0.093,1.35185 v 45.24375 c 0,5.49672 -4.42515,9.92188 -9.92187,9.92188 h -104.51042 c -5.49672,0 -9.92187,-4.42516 -9.92187,-9.92188 v -45.24375 c 0,-0.45895 0.0338,-0.90979 0.0935,-1.35185 z"
       id="path815"
       inkscape:connector-curvature="0" />
  </g>
</svg>
